<?xml version="1.0" standalone="no"?>
<!DOCTYPE svg PUBLIC "-//W3C//DTD SVG 1.1//EN" "http://www.w3.org/Graphics/SVG/1.1/DTD/svg11.dtd" >
<svg xmlns="http://www.w3.org/2000/svg" xmlns:xlink="http://www.w3.org/1999/xlink" version="1.1">
<metadata>
Created by FontForge 20201107 at Wed Feb 23 08:46:12 2022
 By Webmaster
y:#y:Oy:Py:Yy:Ry:Iy:Gy:Hy:Ty:y:Cy:	y:y:y:y:y:
y:y:y:y:y:y:#y:Hy:Ay:Ny:Gy:Zy:Hy:Oy:U0y:3y:Iy:Ny:Oy:4y:Yy:Py:E0y:4y:Ey:Cy:Hy:Ny:Oy:Ly:Oy:Gy:Y0y:#y:Oy:y:y:,y:Ty:Dy:0y:!y:Ly:L0y:Ry:Iy:Gy:Hy:Ty:S0y:Ry:Ey:Sy:Ey:Ry:Vy:Ey:Dy:0^8]SNeSpR7ebg/g	PQlS0rHgCb@g	0
</metadata>
<defs>
<font id="34,ITI" horiz-adv-x="440" >
  <font-face 
    font-family="SNeNf"
    font-weight="400"
    font-stretch="normal"
    units-per-em="1000"
    panose-1="2 1 8 0 4 1 1 1 1 1"
    ascent="800"
    descent="-200"
    x-height="411"
    cap-height="578"
    bbox="-146 -259 1045 737"
    underline-thickness="0"
    underline-position="0"
    unicode-range="U+0021-FFE5"
  />
<missing-glyph horiz-adv-x="1000" 
 />
    <glyph glyph-name=".notdef" horiz-adv-x="1000" 
 />
    <glyph glyph-name="exclam" unicode="!" horiz-adv-x="280" 
d="M223 160h-28q34 249 45 395q1 10 6.5 14.5t30.5 12t39 7.5t14 -11q0 -6 -4 -17l-22 -80zM197 104q18 0 31.5 -14t13.5 -38q0 -28 -14.5 -47t-38.5 -19q-21 0 -33 13t-12 36q0 24 14 46.5t39 22.5z" />
    <glyph glyph-name="quotedbl" unicode="&#x22;" horiz-adv-x="220" 
d="M278 332l38 188q8 38 18.5 51t29.5 13q15 0 15 -18q0 -14 -8 -38l-67 -191q-6 -17 -16 -17q-12 0 -10 12zM151 332l38 188q6 33 16.5 48.5t30.5 15.5q17 0 17 -17q0 -13 -9 -39l-66 -191q-6 -17 -16 -17q-13 0 -11 12z" />
    <glyph glyph-name="numbersign" unicode="#" horiz-adv-x="680" 
d="M232 9l56 171h-120l18 54h119l38 119h-120l19 54h119l52 164h57l-53 -164h112l52 164h57l-53 -164h120l-18 -54h-119l-38 -119h119l-18 -54h-119l-55 -171h-57l56 171h-112l-55 -171h-57zM362 234h111l38 119h-111z" />
    <glyph glyph-name="dollar" unicode="$" 
d="M384 651h31l-16 -70q55 0 76.5 -19.5t21.5 -35.5q0 -11 -9 -21t-21 -10q-18 0 -40 22q-15 15 -39 21l-53 -208q85 -75 85 -143q0 -66 -47.5 -122t-122.5 -72l-32 -124h-31l31 119q-16 -1 -30 -1q-56 0 -75 14.5t-19 33.5q0 12 8 22t21 10q14 0 40 -15q30 -18 65 -20
l59 236q-75 60 -75 133q0 61 43.5 111.5t110.5 64.5zM357 541q-43 -9 -67 -37.5t-24 -65.5t43 -84zM260 34q50 10 79.5 42t29.5 72q0 24 -10.5 43t-44.5 54z" />
    <glyph glyph-name="percent" unicode="%" horiz-adv-x="680" 
d="M239 -4q44 75 71 124l179 325l74 140q5 -2 38 -7q-48 -79 -84 -145l-157 -286q-51 -95 -80 -154q-16 3 -41 3zM162 376q0 78 44 143t109 65q42 0 67 -29t25 -82q0 -73 -44.5 -137t-108.5 -64q-41 0 -66.5 28.5t-25.5 75.5zM344 488q0 35 -10 55t-26 20q-30 0 -57 -61.5
t-27 -134.5q0 -35 11 -54.5t28 -19.5q31 0 56 63.5t25 131.5zM436 90q0 78 43.5 143t109.5 65q42 0 67 -29t25 -82q0 -72 -44.5 -136.5t-108.5 -64.5q-41 0 -66.5 28.5t-25.5 75.5zM618 203q0 36 -11 55.5t-25 19.5q-30 0 -57 -61.5t-27 -135.5q0 -35 11 -54.5t28 -19.5
q31 0 56 63.5t25 132.5z" />
    <glyph glyph-name="ampersand" unicode="&#x26;" horiz-adv-x="780" 
d="M737 556q-23 -40 -52 -165q-36 -150 -64 -205t-85 -110q62 -68 95 -87.5t70 -19.5q38 0 64.5 21t26.5 44q0 11 -6 27q-5 14 -5 26q0 30 30 30q12 0 20.5 -11t8.5 -28q0 -59 -48.5 -102.5t-109.5 -43.5q-31 0 -71.5 17t-106.5 98q-77 -61 -166 -61q-98 0 -161 61t-63 153
q0 90 62 151t146 61q46 0 70 -18.5t24 -42.5q0 -55 -102 -79q85 -31 199 -169q33 39 51 81.5t38 126.5q34 143 96 245q-96 0 -134.5 -21.5t-38.5 -64.5q0 -18 6 -42q3 -10 3 -18q0 -15 -9 -22.5t-18 -7.5q-14 0 -23 12.5t-9 33.5q0 60 50 116t185 56q27 0 53 -1l20 -2
q38 0 38 30q0 8 -3 17t-3 17q0 14 8.5 21.5t20.5 7.5t20.5 -11.5t8.5 -27.5q0 -33 -33 -61.5t-103 -31.5zM230 291q118 -4 118 50q0 18 -12 28.5t-33 10.5q-48 0 -87.5 -42t-39.5 -98q0 -72 64 -132.5t141 -60.5q53 0 102 30q-68 82 -89.5 106t-61.5 50t-102 50v8z" />
    <glyph glyph-name="quotesingle" unicode="'" horiz-adv-x="160" 
d="M185 332l37 188q12 64 46 64q18 0 18 -17q0 -12 -9 -39l-66 -191q-6 -17 -16 -17q-12 0 -10 12z" />
    <glyph glyph-name="parenleft" unicode="(" horiz-adv-x="260" 
d="M401 689q10 0 10 -11q0 -7 -17 -15q-36 -14 -121.5 -102.5t-141 -231t-55.5 -285.5q0 -98 24 -169t44 -107q5 -8 5 -14q0 -8 -8 -8q-12 0 -41 51.5t-50.5 132t-21.5 156.5q0 167 84 317.5t175 218t114 67.5z" />
    <glyph glyph-name="parenright" unicode=")" horiz-adv-x="264" 
d="M124 689q12 0 41 -51t50.5 -129t21.5 -165q0 -96 -26 -176.5t-68 -155.5t-96.5 -135t-111 -95.5t-71.5 -35.5q-10 0 -10 10q0 9 18 16q35 15 124.5 108t141 234.5t51.5 277.5q0 92 -23.5 166t-44.5 109q-5 9 -5 15q0 7 8 7z" />
    <glyph glyph-name="asterisk" unicode="*" horiz-adv-x="420" 
d="M321 689q11 -62 32 -117q13 -2 31 -2q35 0 90 8q3 -8 8 -24q-58 -31 -104 -69q16 -52 46 -108q-5 -5 -19 -15q-54 45 -97 75q-39 -23 -96 -75l-22 16q31 58 48 107q-52 41 -101 69q4 16 8 24q83 -9 120 -6q22 66 29 117q17 1 27 0zM361 512q0 20 -16 35.5t-37 15.5
q-19 0 -34 -15t-15 -36q0 -22 14.5 -37t38.5 -15q22 0 35.5 17t13.5 35z" />
    <glyph glyph-name="plus" unicode="+" horiz-adv-x="520" 
d="M323 314v188h54v-188h189v-54h-189v-191h-54v191h-189v54h189z" />
    <glyph glyph-name="comma" unicode="," horiz-adv-x="220" 
d="M27 -152l-9 32q30 23 57 53t27 51q0 12 -12 36q-11 22 -11 37q0 19 13 32t31 13q19 0 34 -16t15 -39q0 -48 -40.5 -102.5t-104.5 -96.5z" />
    <glyph glyph-name="hyphen" unicode="-" horiz-adv-x="280" 
d="M95 225h226l-12 -49h-227z" />
    <glyph glyph-name="period" unicode="." horiz-adv-x="220" 
d="M73 30q0 29 13.5 51.5t39.5 22.5q19 0 32 -14t13 -36q0 -31 -15 -49.5t-38 -18.5q-19 0 -32 12.5t-13 31.5z" />
    <glyph glyph-name="slash" unicode="/" horiz-adv-x="340" 
d="M-11 -188l484 864h50l-483 -864h-51z" />
    <glyph glyph-name="zero" unicode="0" 
d="M102 184q0 101 39.5 204.5t94 149.5t107.5 46q71 0 113 -52.5t42 -152.5q0 -141 -72.5 -267t-177.5 -126q-60 0 -103 52t-43 146zM412 399q0 76 -20 116t-57 40q-32 0 -63.5 -41.5t-57.5 -147.5t-26 -202q0 -72 21 -110.5t55 -38.5q57 0 102.5 122.5t45.5 261.5z" />
    <glyph glyph-name="one" unicode="1" 
d="M418 590h15l-67 -263l-56 -245q-7 -32 -7 -41q0 -11 11 -15.5t34 -6.5q21 -1 43 -6l-10 -24q-86 11 -147 11t-131 -11l8 24q59 12 82.5 20t35 39t18.5 56l53 202q26 118 26 130q0 18 -15 18q-11 0 -97 -40l-10 25q94 44 132.5 66t81.5 61z" />
    <glyph glyph-name="two" unicode="2" 
d="M197 436l-25 13q34 69 74 102t98 33q59 0 97 -37.5t38 -92.5q0 -42 -21 -80.5t-46 -64t-97 -87.5q-117 -101 -166 -165q38 2 132 2q63 0 79.5 3.5t50.5 59.5h34q-43 -61 -69 -135q-71 13 -149 13q-59 0 -153 -6l10 31q46 67 132 148q90 86 117.5 121t44.5 72.5t17 69.5
q0 43 -23.5 70t-59.5 27q-65 0 -115 -97z" />
    <glyph glyph-name="three" unicode="3" 
d="M216 471l-20 14q37 46 75 72.5t85 26.5q45 0 70.5 -22t25.5 -60q0 -76 -115 -162q50 1 78.5 -29.5t28.5 -81.5q0 -87 -84.5 -165t-178.5 -78q-41 0 -71 18.5t-30 41.5q0 11 7.5 19.5t18.5 8.5q17 0 35 -18q38 -38 72 -38q41 0 95 59t54 129q0 41 -23 64t-54 23
q-24 0 -57 -12l3 30q64 25 106 70.5t42 86.5q0 34 -17 49.5t-40 15.5q-55 0 -106 -62z" />
    <glyph glyph-name="four" unicode="4" 
d="M455 199l-10 -51h-76l-32 -148h-69l32 148q-158 0 -179 -1l-35 -1q-11 0 -11 10q0 24 108 158t280 274h14l-96 -389h74zM311 199l67 276q-96 -91 -142 -143t-102 -133h177z" />
    <glyph glyph-name="five" unicode="5" 
d="M507 598h27l-35 -72q-7 -16 -61 -16q-118 0 -142 -5q-17 -42 -17 -57q0 -9 8 -18t21 -13q61 -22 90.5 -61.5t29.5 -101.5q0 -104 -82.5 -186t-182.5 -82q-46 0 -68 13.5t-22 33.5q0 11 9 20t19 9q11 0 30 -14q27 -21 64 -21q64 0 118.5 57t54.5 126q0 46 -26.5 82.5
t-75.5 58.5q-19 8 -26.5 16t-7.5 22q0 15 16 65l33 103q22 14 50 14h105q30 0 44.5 5.5t26.5 21.5z" />
    <glyph glyph-name="six" unicode="6" 
d="M534 585l-6 -29q-233 -8 -298 -235q54 45 111 45q60 0 92 -42t32 -110q0 -99 -54 -163.5t-136 -64.5q-70 0 -112 52t-42 147q0 96 51 191t144.5 152t217.5 57zM220 283q-13 -74 -13 -128q0 -71 22.5 -106.5t59.5 -35.5q44 0 67 48.5t23 126.5q0 68 -18.5 103.5
t-51.5 35.5q-39 0 -89 -44z" />
    <glyph glyph-name="seven" unicode="7" 
d="M210 450h-26q27 79 38 129q57 -8 171 -8q110 0 157 2q-147 -187 -205.5 -271.5t-84 -135.5t-32.5 -100t-16 -64.5t-29 -15.5q-15 0 -26 12.5t-11 31.5q0 29 16 69t54.5 94.5t184.5 237.5l63 79h-183q-32 0 -43.5 -9t-27.5 -51z" />
    <glyph glyph-name="eight" unicode="8" 
d="M362 327q83 -83 83 -156q0 -74 -61 -129.5t-145 -55.5q-66 0 -104.5 36t-38.5 89q0 34 20 68t48 56.5t109 73.5q-52 58 -52 121t48 108.5t119 45.5q50 0 83 -27.5t33 -67.5q0 -42 -36.5 -84.5t-105.5 -77.5zM340 352q110 73 110 130q0 29 -21.5 49.5t-53.5 20.5
q-37 0 -63.5 -26.5t-26.5 -63.5q0 -51 55 -110zM294 287q-67 -45 -99 -86.5t-32 -90.5q0 -41 28 -68t68 -27q49 0 84 37.5t35 85.5q0 30 -17.5 62t-66.5 87z" />
    <glyph glyph-name="nine" unicode="9" 
d="M72 -14l6 29q228 5 298 234q-54 -45 -111 -45q-58 0 -91 40t-33 112q0 97 53.5 162.5t136.5 65.5q69 0 111 -52.5t42 -141.5q0 -158 -112 -281t-300 -123zM385 287q14 78 14 125q0 70 -22 107.5t-61 37.5q-43 0 -66.5 -47.5t-23.5 -132.5q0 -69 20.5 -101.5t50.5 -32.5
q38 0 88 44z" />
    <glyph glyph-name="colon" unicode=":" horiz-adv-x="260" 
d="M143 341q0 29 14.5 49.5t38.5 20.5q19 0 32 -14.5t13 -35.5q0 -31 -15 -49.5t-38 -18.5q-20 0 -32.5 13t-12.5 35zM73 34q0 29 15 49.5t38 20.5q20 0 32.5 -14t12.5 -36q0 -31 -15 -49.5t-38 -18.5q-20 0 -32.5 13t-12.5 35z" />
    <glyph glyph-name="semicolon" unicode=";" horiz-adv-x="240" 
d="M148 343q0 27 15.5 47.5t38.5 20.5q18 0 31.5 -14t13.5 -36q0 -30 -15 -49t-39 -19q-20 0 -32.5 13.5t-12.5 36.5zM26 -152l-9 32q38 29 61 58t23 45q0 13 -12 37q-11 19 -11 37q0 19 12.5 32t31.5 13q20 0 34.5 -16t14.5 -39q0 -47 -38.5 -100t-106.5 -99z" />
    <glyph glyph-name="less" unicode="&#x3c;" horiz-adv-x="520" 
d="M544 113v-53l-435 200v47l435 199v-52l-366 -171z" />
    <glyph glyph-name="equal" unicode="=" horiz-adv-x="520" 
d="M566 398v-55h-432v55h432zM566 231v-55h-432v55h432z" />
    <glyph glyph-name="greater" unicode="&#x3e;" horiz-adv-x="520" 
d="M162 113l366 170l-366 171v52l436 -199v-47l-436 -200v53z" />
    <glyph glyph-name="question" unicode="?" horiz-adv-x="380" 
d="M166 160h-31q9 98 20.5 120.5t44.5 32.5q88 28 127.5 65t39.5 86q0 32 -18 53t-47 21q-25 0 -59 -27q-21 -16 -33 -16q-11 0 -20.5 9t-9.5 22q0 22 25.5 40t62.5 18q57 0 98.5 -42t41.5 -110q0 -127 -155 -181q-64 -23 -71.5 -36t-15.5 -55zM88 34q0 29 14.5 49.5
t38.5 20.5q19 0 31.5 -14t12.5 -36q0 -31 -14.5 -49.5t-38.5 -18.5q-19 0 -31.5 13t-12.5 35z" />
    <glyph glyph-name="at" unicode="@" horiz-adv-x="700" 
d="M604 493l28 7q-73 -262 -73 -309q0 -20 16 -20q23 0 60.5 35.5t57.5 82t20 91.5q0 75 -49 122t-129 47q-136 0 -215 -107t-79 -219q0 -55 21 -104.5t66.5 -74.5t97.5 -25q114 0 232 96l16 -20q-121 -109 -269 -109q-113 0 -170 59t-57 159q0 93 48.5 183t135.5 143.5
t185 53.5q101 0 166.5 -54.5t65.5 -133.5q0 -64 -47 -133.5t-114 -106t-101 -36.5q-26 0 -26 23q0 9 19 72q-85 -95 -146 -95q-20 0 -35.5 22.5t-15.5 55.5q0 86 73 183t184 97q13 0 26 -1zM554 429q-18 4 -34 4q-69 0 -107 -66t-38 -143q0 -47 39 -47q30 0 61 33t37 58z
" />
    <glyph glyph-name="A" unicode="A" horiz-adv-x="620" 
d="M634 21l-4 -27q-23 -2 -36 -2q-17 0 -41 3q-42 5 -63 5q-23 0 -58 -6q28 71 41 182q-99 0 -178 -2q-127 -195 -185.5 -241t-105.5 -46q-55 0 -55 40q0 12 8.5 19.5t22.5 7.5q7 0 15 -2q24 -6 40 -6q24 0 49.5 18t78.5 82.5t134 189.5q141 218 231 318
q-126 -10 -161 -23.5t-53.5 -38t-18.5 -48.5q0 -14 7 -27t7 -24q0 -14 -9 -22t-22 -8q-34 0 -34 50q0 63 54.5 111.5t194.5 56.5q50 3 74.5 10.5t41.5 24.5q-16 -63 -21 -105l-60 -485q41 -9 66 -9q18 0 40 4zM477 212q25 207 47 290l-77 -103l-125 -187q39 -1 78 -1t77 1z
" />
    <glyph glyph-name="B" unicode="B" horiz-adv-x="600" 
d="M342 460l5 24q58 3 120 19q-15 -46 -24 -81l-27 -109q86 0 130 43t44 103q0 44 -32.5 69t-92.5 25q-91 0 -174.5 -45.5t-123.5 -114t-40 -127.5q0 -18 6.5 -40.5t38.5 -45.5q34 -24 34 -41q0 -7 -6.5 -17t-18.5 -10q-27 0 -56.5 40.5t-29.5 102.5q0 79 49.5 158
t140.5 125t196 46q87 0 133 -35t46 -86q0 -49 -31.5 -87t-92.5 -59q59 -8 89 -40.5t30 -80.5q0 -87 -75.5 -148.5t-169.5 -61.5q-30 0 -84 5q-16 2 -42 2q-69 0 -109 -9l7 27q50 3 72 23.5t42 97.5l72 283q4 16 4 25q0 22 -30 20zM408 284l-24 -98q-31 -125 -63 -159
q42 -10 78 -10q85 0 127.5 54.5t42.5 113.5q0 43 -28.5 71.5t-132.5 27.5z" />
    <glyph glyph-name="C" unicode="C" horiz-adv-x="520" 
d="M582 371h-26q2 49 2 61q0 123 -100 123q-64 0 -126 -51t-104.5 -148.5t-42.5 -199.5q0 -99 40 -155t106 -56q85 0 157 102q7 10 16 10q4 0 9 -3.5t5 -8.5q0 -14 -34 -53.5t-82.5 -64.5t-96.5 -25q-52 0 -103 30t-78.5 86.5t-27.5 131.5q0 108 54.5 211.5t137 163
t168.5 59.5q32 0 57 -6t100 -34q-28 -86 -31 -173z" />
    <glyph glyph-name="D" unicode="D" horiz-adv-x="700" 
d="M317 466l5 21q62 5 126 21q-19 -48 -37 -123l-33 -136q-32 -144 -78 -220q47 -8 86 -8q88 0 151.5 42.5t94 110.5t30.5 137q0 110 -65.5 175.5t-164.5 65.5q-87 0 -163 -40.5t-121 -107.5t-45 -134q0 -61 55 -91q25 -15 25 -31q0 -10 -9 -20t-22 -10q-29 0 -56 43.5
t-27 88.5q0 82 50.5 162t141 126t197.5 46q131 0 212.5 -71t81.5 -182q0 -129 -93 -234t-249 -105q-36 0 -83 4t-108 4q-33 0 -70 -1l12 24q51 2 72.5 26.5t40.5 96.5l73 284q3 11 3 18q0 22 -33 18z" />
    <glyph glyph-name="E" unicode="E" horiz-adv-x="620" 
d="M641 467h-26q4 25 4 36q0 27 -27.5 32t-112.5 4l-71 -1l-55 -216h101q50 0 61 8t14 35h28q-14 -53 -28 -130h-25q3 19 3 29q0 17 -11 22.5t-50 5.5h-100q-44 -170 -90 -261q42 14 80 14q65 0 144 -18q46 -11 65 -11q18 0 31 10.5t13 25.5q0 10 -6 25q-4 10 -4 20
q0 14 8 23t22 9q15 0 25 -12t10 -31q0 -40 -35 -72t-104 -32q-29 0 -72 5q-110 13 -176 13q-64 0 -153 -13l8 27q41 12 56 18t22 15.5t23 52t39 129.5l81 312q-89 0 -155 -59.5t-66 -134.5q0 -42 23 -81q9 -15 9 -27t-9.5 -20.5t-20.5 -8.5q-23 0 -35.5 29t-12.5 67
q0 102 76.5 183.5t227.5 81.5h167q86 0 128 12q-22 -98 -24 -116z" />
    <glyph glyph-name="F" unicode="F" horiz-adv-x="580" 
d="M665 455h-26q7 36 7 51q0 19 -10 26.5t-42 7.5h-140q-30 -108 -55 -213h95q34 0 44.5 6.5t17.5 35.5h27q-15 -61 -27 -129h-27q4 19 4 29q0 15 -9.5 20.5t-39.5 5.5h-93q-35 -151 -77 -268q41 -6 69 -6q21 0 40 3l-8 -28q-11 -1 -21 -1l-129 5q-48 0 -102 -9l6 27
q49 8 69.5 30t65.5 199l75 293q-104 -5 -163 -66t-59 -131q0 -37 19 -71q14 -26 14 -38q0 -11 -10.5 -18t-19.5 -7q-20 0 -34 27t-14 73q0 97 76 179.5t203 82.5h187q61 0 117 14z" />
    <glyph glyph-name="G" unicode="G" horiz-adv-x="620" 
d="M650 389h-27q3 22 3 41q0 66 -35 96t-86 30q-64 0 -134.5 -47t-114.5 -131t-44 -173q0 -92 44 -136t103 -44q52 0 113 34q23 78 23 102q0 27 -45 27q-14 0 -34 -3l4 24q33 4 56 4q14 0 31 -1q11 -1 25 -1l91 5l-5 -25q-25 0 -35 -11.5t-21 -56.5q-57 -237 -124 -308.5
t-153 -71.5q-46 0 -76.5 21t-30.5 48q0 13 8.5 22.5t20.5 9.5q18 0 40 -24q23 -26 36.5 -34t31.5 -8q43 0 77.5 58t68.5 185q-69 -35 -133 -35q-95 0 -148.5 57.5t-53.5 156.5q0 152 114.5 268t255.5 116q45 0 91 -13q44 -13 90 -13q-25 -88 -27 -169z" />
    <glyph glyph-name="H" unicode="H" horiz-adv-x="680" 
d="M683 16l-6 -28q-22 -3 -39 -3q-18 0 -55 4q-29 3 -53 3q-37 0 -54 -7q17 49 45 156l38 147l-132 -5q-21 -1 -71 -5q-48 -189 -110.5 -252t-128.5 -63q-33 0 -60.5 16.5t-27.5 38.5q0 12 9.5 20t19.5 8q19 0 39 -27q11 -15 18.5 -20t18.5 -5q28 0 53 33t48 99t68 234
l48 178q-100 0 -147.5 -32.5t-47.5 -69.5q0 -19 13 -37q12 -16 12 -33q0 -13 -9 -22t-23 -9q-21 0 -31.5 18t-10.5 46q0 39 19 71t59.5 58t89.5 34.5t171 8.5q-36 -74 -80 -252q128 0 203 9q56 189 109 246t131 57q41 0 63.5 -16.5t22.5 -37.5q0 -11 -7 -19t-19 -8
q-21 0 -42 24q-22 25 -39 25q-53 0 -105 -146t-114 -434q11 0 36 -5q15 -3 31 -3q21 0 47 5z" />
    <glyph glyph-name="I" unicode="I" horiz-adv-x="380" 
d="M474 578l-9 -27q-51 -3 -67 -10t-25 -26t-32 -100t-45 -175l-52 -214q33 -11 86 -9l-8 -24q-21 0 -62 4q-35 3 -73 3q-63 0 -120 -9l6 26q62 11 77.5 18.5t22 22.5t15.5 47l39 146l72 290q-36 0 -82 -10l9 27q11 7 139 12q77 2 109 8z" />
    <glyph glyph-name="J" unicode="J" horiz-adv-x="400" 
d="M501 583q-35 -82 -75 -220l-73 -255q-35 -123 -98.5 -179.5t-136.5 -56.5q-47 0 -77 23t-30 48q0 12 8.5 21.5t19.5 9.5q17 0 37 -20q45 -45 77 -45q18 0 33 9.5t29 29.5t43.5 109t59.5 185l89 309l-23 2q-78 0 -129 -38t-51 -77q0 -19 13 -36q11 -14 11 -29
q0 -13 -9 -21.5t-23 -8.5q-38 0 -38 59q0 44 23 81t65.5 62.5t94 33t160.5 4.5z" />
    <glyph glyph-name="K" unicode="K" horiz-adv-x="660" 
d="M757 576l-3 -12q-32 -7 -57 -19.5t-78 -58.5q-121 -105 -203 -156q24 -28 40.5 -64.5t63.5 -180.5q34 -105 72.5 -156.5t91.5 -51.5q19 0 33 11.5t20 31.5q11 39 36 39q10 0 18.5 -8t8.5 -21q0 -26 -34.5 -54t-87.5 -28q-71 0 -127.5 53t-105.5 200q-36 107 -54 142
t-48 72l-52 -198q-14 -56 -19 -86q39 -17 77 -13l-6 -24q-9 -1 -17 -1q-13 0 -41 3q-35 4 -59 4q-44 0 -121 -16l4 24q71 11 89 57t74 258l58 218q-87 -6 -141.5 -37.5t-54.5 -70.5q0 -17 11 -33q12 -17 12 -30q0 -11 -10 -21t-22 -10q-16 0 -28 15t-12 40q0 70 69 123.5
t234 53.5h31q-30 -83 -35 -101l-37 -140q55 18 164 105.5t109 101.5q0 10 -66 12l6 27q61 -5 102 -5q42 0 95 5z" />
    <glyph glyph-name="L" unicode="L" horiz-adv-x="580" 
d="M48 -8l6 26q54 10 73 26t34.5 64t29.5 112q50 225 124 296.5t149 71.5q38 0 66 -19.5t28 -39.5q0 -10 -7.5 -19.5t-18.5 -9.5q-16 0 -37 19q-35 33 -63 33q-34 0 -71 -52.5t-80 -217.5q-35 -133 -51 -179t-38 -71q69 15 112 15t124 -19q46 -11 65 -11q21 0 33 12t12 26
q0 10 -6 25q-7 17 -7 28q0 14 10.5 20t18.5 6q15 0 25 -13t10 -36q0 -41 -34 -72t-99 -31q-28 0 -74 4q-148 14 -207 14q-78 0 -127 -8z" />
    <glyph glyph-name="M" unicode="M" horiz-adv-x="840" 
d="M471 -21l-39 526q-14 -156 -59.5 -287.5t-108.5 -191.5t-134 -60q-28 0 -42.5 10.5t-14.5 26.5q0 13 10 23t30 10q14 0 31 -5q18 -6 33 -6q47 0 96 66t85 198.5t43 256.5q-56 0 -109.5 -17t-89.5 -56t-36 -76q0 -31 27 -62q14 -15 14 -31q0 -12 -8.5 -19.5t-18.5 -7.5
q-20 0 -37 26t-17 62q0 50 32.5 101t99.5 80.5t164 31.5q51 0 76 8q-1 -49 0 -67l29 -371q99 175 199 300.5t170 165.5q-34 -92 -72 -245l-85 -344q38 -8 68 -8q25 0 53 5l-6 -28q-22 -4 -42 -4q-18 0 -54 4q-39 4 -55 4q-24 0 -58 -10q23 60 56 189l38 150q22 94 41 132
q-18 -20 -46 -58t-62.5 -88.5t-56.5 -85t-48 -80.5z" />
    <glyph glyph-name="N" unicode="N" horiz-adv-x="700" 
d="M455 588l13 -57q17 -74 35 -127l98 -281l48 194q25 98 46 153t43.5 83t50 40t58.5 12q33 0 50 -12t17 -29q0 -11 -9 -21t-23 -10q-9 0 -19 5q-28 13 -50 13q-20 0 -39.5 -15.5t-43.5 -77.5t-55 -178.5t-61 -250.5l-16 -72q-85 186 -136 347l-53 169q-6 -41 -40.5 -178.5
t-51.5 -188.5t-43 -88.5t-58 -54t-68 -16.5q-38 0 -67 17t-29 41q0 11 8 19.5t19 8.5q16 0 34 -16q32 -29 59 -29q60 0 108.5 122.5t107.5 435.5q-213 -20 -213 -144q0 -33 17 -58q12 -18 12 -29q0 -10 -9.5 -18.5t-21.5 -8.5q-19 0 -32 20.5t-13 57.5q0 63 30.5 108.5
t80 68t146.5 32.5q39 5 70 13z" />
    <glyph glyph-name="O" unicode="O" horiz-adv-x="600" 
d="M152 216q0 127 90.5 247.5t246.5 120.5q98 0 156.5 -64.5t58.5 -166.5q0 -92 -49 -184t-123.5 -137.5t-156.5 -45.5q-97 0 -160 63t-63 167zM614 337q0 96 -45 154t-116 58q-95 0 -153.5 -85.5t-58.5 -216.5q0 -107 46 -166t120 -59q88 0 147.5 88.5t59.5 226.5z" />
    <glyph glyph-name="P" unicode="P" horiz-adv-x="540" 
d="M306 466l6 22q76 8 121 20q-8 -21 -26 -89l-37 -138l46 -3q61 -3 112 50.5t51 116.5q0 50 -35.5 79.5t-105.5 29.5q-82 0 -163.5 -41.5t-125 -106t-43.5 -126.5q0 -32 12.5 -55t39.5 -43q24 -18 24 -35q0 -9 -8.5 -17t-19.5 -8q-25 0 -53 38.5t-28 101.5q0 124 106 223
t278 99q98 0 152.5 -37.5t54.5 -101.5q0 -80 -76 -138.5t-188 -58.5q-18 0 -37 2l-38 -152q-18 -64 -22 -76q36 -9 67 -9q36 0 76 13l-6 -27q-36 -10 -70 -10q-26 0 -69 5q-40 5 -70 5q-41 0 -90 -11l6 26q53 7 75 30t37 82l73 293q5 17 5 27q0 23 -31 20z" />
    <glyph glyph-name="Q" unicode="Q" horiz-adv-x="600" 
d="M381 -9l118 -114q55 -53 86 -72t50.5 -25t38.5 -6q20 0 36.5 6t25.5 14.5t21 32.5q13 25 33 25q9 0 16.5 -7.5t7.5 -17.5q0 -28 -50.5 -57t-122.5 -29q-53 0 -102.5 21.5t-143.5 118.5q-66 68 -88 84.5t-65 33.5q-71 27 -105.5 84.5t-34.5 129.5q0 131 91 251t237 120
q105 0 164.5 -65.5t59.5 -167.5q0 -114 -75.5 -226t-197.5 -134zM564 336q0 96 -45 154t-116 58q-93 0 -152.5 -85t-59.5 -217q0 -108 47 -166.5t119 -58.5q87 0 147 88t60 227z" />
    <glyph glyph-name="R" unicode="R" horiz-adv-x="600" 
d="M360 276l-66 -259q23 -3 40 -3q23 0 51 7l-5 -24q-38 -7 -61 -7q-16 0 -46 3q-32 3 -55 3q-38 0 -89 -10l7 27q54 12 75 32.5t33 68.5l68 273q12 48 12 61q0 11 -6 14t-24 3l7 24q49 0 118 18q-3 -8 -15 -55l-37 -144q23 -4 43 -4q61 0 103 44t42 99q0 46 -35.5 75
t-94.5 29q-73 0 -145.5 -34.5t-112 -91t-39.5 -118.5q0 -45 38 -78q28 -24 28 -38q0 -7 -6.5 -16.5t-18.5 -9.5q-28 0 -51 35.5t-23 93.5q0 76 41.5 141t126.5 107t176 42q96 0 148 -35.5t52 -93.5q0 -62 -52 -113t-142 -66q24 -42 60 -149q43 -127 88 -189t99 -62
q48 0 60 42q7 22 14 32t22 10q12 0 19.5 -8.5t7.5 -21.5q0 -29 -35 -56t-86 -27q-38 0 -75 16.5t-70.5 51t-64.5 88.5t-51 119l-26 83q-19 64 -22 71l-12 1q-7 0 -13 -1z" />
    <glyph glyph-name="S" unicode="S" horiz-adv-x="460" 
d="M502 396h-25q6 65 6 80q0 35 -21 57t-55 22q-54 0 -94 -40t-40 -86q0 -27 11.5 -48.5t48.5 -57.5q67 -65 89.5 -104t22.5 -76q0 -57 -37 -108t-100 -79t-126 -28q-70 0 -116.5 36t-46.5 76q0 22 13 36t27 14q33 0 42 -48q16 -83 99 -83q62 0 115 47t53 103q0 23 -11.5 52
t-73.5 91q-35 36 -50 54.5t-23.5 43.5t-8.5 47q0 66 61.5 126.5t153.5 60.5q37 0 119 -17q-18 -48 -33 -171z" />
    <glyph glyph-name="T" unicode="T" horiz-adv-x="500" 
d="M484 26l-7 -28q-30 -7 -57 -7q-20 0 -66 4q-35 3 -64 3q-49 0 -101 -9l7 27q70 6 89 37.5t63 210.5l66 271q-106 3 -162.5 -10.5t-93.5 -51.5t-37 -93q0 -18 6 -29.5t20 -26.5q17 -19 17 -34q0 -12 -10.5 -22t-22.5 -10q-21 0 -36.5 27.5t-15.5 69.5q0 85 76.5 157
t210.5 72q59 0 148 -12q68 -9 99 -9q30 0 43 9.5t13 31.5l-2 24q0 12 9 21t20 9q15 0 24.5 -11t9.5 -29q0 -36 -39 -63.5t-135 -27.5q-32 0 -69 3l-127 -509q32 -3 54 -3q35 0 70 8z" />
    <glyph glyph-name="U" unicode="U" horiz-adv-x="740" 
d="M453 581q-31 -52 -81 -178t-50 -205q0 -68 34 -108t90 -40q76 0 147.5 69t114.5 179.5t43 203.5q0 28 -7 59.5t-17 46.5q-17 25 -17 46q0 14 8.5 23t23.5 9q26 0 40.5 -33t14.5 -94q0 -152 -68.5 -304t-156 -210.5t-170.5 -58.5q-77 0 -118.5 51t-41.5 133q0 55 24 135
t98 236q-55 3 -105.5 -13.5t-72.5 -41.5t-22 -48q0 -17 13 -35q10 -13 10 -27t-9.5 -23.5t-21.5 -9.5q-17 0 -28.5 14.5t-11.5 38.5q0 49 34 93.5t81.5 62t154.5 23.5q62 3 67 6z" />
    <glyph glyph-name="V" unicode="V" horiz-adv-x="640" 
d="M314 -23l-18 236q-5 60 -5 99q0 73 22 128.5t64 108.5q-81 0 -156 -49t-75 -113q0 -21 10 -36q13 -18 13 -35q0 -25 -25 -25q-16 0 -29 20.5t-13 48.5q0 74 69.5 141.5t245.5 78.5q37 2 53 5q-67 -98 -86.5 -163t-19.5 -180q0 -78 9 -149l173 182q93 95 144 165.5
t51 127.5q0 27 -11 55q-7 19 -7 30q0 14 10.5 23t22.5 9q19 0 31.5 -20.5t12.5 -58.5q0 -56 -25.5 -106t-73.5 -108t-159 -171t-228 -244z" />
    <glyph glyph-name="W" unicode="W" horiz-adv-x="880" 
d="M613 -43l9 315q3 100 20 196q-27 -32 -71 -104q-131 -208 -277 -387q-24 152 -24 304q0 103 19.5 156t63.5 111q-90 -9 -144.5 -56.5t-54.5 -97.5q0 -21 10 -40q12 -23 12 -32t-8.5 -18.5t-19.5 -9.5q-17 0 -28 17.5t-11 45.5q0 43 27 92.5t76 80t92 39t143 20.5
q-106 -150 -106 -300q0 -37 8 -189q38 44 136 191q125 187 162 232.5t87 89.5q-47 -187 -47 -529l123 152q51 63 114 167t63 166q0 30 -13 59q-7 16 -7 29q0 14 9 22.5t24 8.5q22 0 33.5 -24t11.5 -52q0 -53 -37 -137t-168 -254.5t-227 -263.5z" />
    <glyph glyph-name="X" unicode="X" horiz-adv-x="560" 
d="M215 537l6 29q22 4 41 4q78 0 112 7q0 -94 29 -203q57 79 121 150t100.5 91t72.5 20q22 0 34 -8.5t12 -23.5q0 -14 -13 -21t-41 -10q-60 -7 -93 -30t-93 -94.5t-89 -112.5q47 -150 47 -268q0 -21 -1 -41q20 -5 48 -5q19 0 47 2l-6 -27q-19 -1 -30 -1q-15 0 -37 2
q-21 3 -40 3q-22 0 -57 -4q6 34 6 74q0 98 -30 195l-79 -111q-104 -145 -158 -183.5t-94 -38.5q-20 0 -29 9.5t-9 20.5q0 28 47 33q39 6 67.5 21.5t65 54t84.5 105.5l93 129q-45 145 -47 239q-49 3 -87 -7z" />
    <glyph glyph-name="Y" unicode="Y" horiz-adv-x="560" 
d="M550 29l-10 -29q-32 -8 -59 -8q-19 0 -53 4q-35 4 -59 4q-32 0 -89 -7l8 25q36 9 50 19.5t24.5 41.5t30 111t19.5 106q0 63 -24 132t-65 114q-102 -36 -136.5 -82.5t-34.5 -81.5q0 -26 22 -48q19 -18 19 -35q0 -11 -8 -19t-19 -8q-21 0 -36 24.5t-15 61.5q0 70 52.5 130
t166.5 91q21 5 48 16q85 -101 100 -281q93 194 175.5 269.5t131.5 75.5q17 0 27.5 -9.5t10.5 -21.5q0 -16 -15.5 -26t-44.5 -10q-36 0 -69.5 -24.5t-84.5 -90.5t-95.5 -160t-64.5 -177.5t-23 -112.5q29 -4 49 -4q32 0 71 10z" />
    <glyph glyph-name="Z" unicode="Z" horiz-adv-x="620" 
d="M550 511q-33 -7 -64 -7q-53 0 -129 21q-44 12 -64 12q-17 0 -27 -9t-10 -20q0 -13 16 -25q25 -18 25 -37q0 -11 -9 -20t-21 -9q-18 0 -33 17t-15 47q0 42 30.5 74t84.5 32q25 0 69 -6q98 -14 143 -14q46 0 91 21q12 7 17 7q6 0 11 -4.5t5 -10.5q0 -15 -45 -55
q-36 -32 -70 -65l-170 -176q-136 -141 -233 -248q110 31 159 31q79 0 166 -33q45 -17 71 -17q42 0 42 38q0 11 -5 22q-6 11 -6 23q0 14 9.5 23.5t23.5 9.5q15 0 25 -12t10 -32q0 -44 -34.5 -76t-87.5 -32q-32 0 -101 9q-79 10 -176 10q-108 0 -146 -15q-14 -6 -22 -6
q-13 0 -13 14q0 9 7 18t42 46l327 334q56 56 107 120z" />
    <glyph glyph-name="bracketleft" unicode="[" horiz-adv-x="240" 
d="M256 672h147l-8 -30h-93l-177 -780h91l-6 -30h-147z" />
    <glyph glyph-name="backslash" unicode="\" horiz-adv-x="480" 
d="M470 -188h-51l-210 864h51z" />
    <glyph glyph-name="bracketright" unicode="]" horiz-adv-x="320" 
d="M180 -168h-148l7 30h94l177 780h-92l8 30h146z" />
    <glyph glyph-name="asciicircum" unicode="^" horiz-adv-x="520" 
d="M301 411h-55l98 160h52l97 -160h-55l-68 97z" />
    <glyph glyph-name="underscore" unicode="_" horiz-adv-x="500" 
d="M-6 -75h512v-50h-512v50z" />
    <glyph glyph-name="a" unicode="a" horiz-adv-x="420" 
d="M418 419l32 7l-36 -124q-20 -66 -36.5 -142.5t-16.5 -96.5q0 -13 11 -13q13 0 38 17t47 38l15 -19q-101 -100 -167 -100q-25 0 -25 21q0 9 4 22l19 66q-43 -51 -87 -80t-78 -29q-31 0 -47.5 24t-16.5 67q0 41 17.5 90.5t52 99t73 80.5t75 43t81.5 12q16 0 33 -2zM357 344
q-24 5 -45 5q-80 0 -122.5 -82t-42.5 -154q0 -62 41 -62q35 0 73 37t56 104z" />
    <glyph glyph-name="b" unicode="b" horiz-adv-x="420" 
d="M246 325q79 84 146 84q35 0 55 -28.5t20 -81.5q0 -78 -38 -156.5t-95 -117.5t-108 -39q-40 0 -68 24t-28 73q0 33 13 91l58 259q30 145 100 198.5t134 53.5q53 0 53 -34q0 -35 -48 -35q-16 0 -73 10q-6 1 -11 1q-26 0 -40.5 -34.5t-29.5 -96.5zM390 275q0 38 -14 59
t-33 21q-51 0 -100 -89.5t-49 -184.5q0 -26 16.5 -44t39.5 -18q55 0 97.5 87t42.5 169z" />
    <glyph glyph-name="c" unicode="c" horiz-adv-x="340" 
d="M353 106l10 -28q-116 -92 -196 -92q-39 0 -60 28t-21 79q0 104 72 211t172 107q34 0 53.5 -13t19.5 -34q0 -15 -9.5 -24.5t-25.5 -9.5q-20 0 -46 15q-29 17 -47 17q-24 0 -49 -23.5t-44.5 -86t-19.5 -122.5q0 -45 16 -68t39 -23q57 0 136 67z" />
    <glyph glyph-name="d" unicode="d" 
d="M461 102l14 -18q-79 -67 -113 -82.5t-54 -15.5q-26 0 -26 23q0 8 5 25l17 60q-50 -54 -90.5 -81t-77.5 -27q-28 0 -44.5 23.5t-16.5 65.5q0 65 44 153t103 135t117 47q14 0 29 -2q21 90 43 137.5t57.5 79t77.5 48t72 16.5q46 0 46 -37q0 -34 -45 -34q-17 0 -40 5
q-24 5 -39 5q-36 0 -50 -28.5t-47 -167.5l-69 -295q-12 -52 -12 -69q0 -19 15 -19q16 0 84 53zM357 354q-35 9 -55 9q-67 0 -110 -93t-43 -160q0 -26 12 -41.5t32 -15.5q27 0 60 28t48 60t34 115z" />
    <glyph glyph-name="e" unicode="e" horiz-adv-x="340" 
d="M341 121l16 -21q-120 -114 -205 -114q-72 0 -72 99q0 109 70 217.5t165 108.5q35 0 53 -19.5t18 -45.5q0 -43 -41.5 -84t-180.5 -101q-4 -26 -4 -49q0 -40 11.5 -51.5t32.5 -11.5q22 0 51.5 15.5t85.5 56.5zM170 192q146 68 146 133q0 17 -11 31t-29 14q-72 0 -106 -178z
" />
    <glyph glyph-name="f" unicode="f" horiz-adv-x="320" 
d="M101 379h117q30 127 67.5 184t96 91.5t111.5 34.5q28 0 44 -11t16 -29q0 -33 -42 -33q-23 0 -57 10q-17 5 -32 5q-42 0 -68 -45.5t-39 -102.5l-24 -104h129l-8 -35h-130l-77 -311q-36 -143 -115 -216t-170 -73q-29 0 -45.5 11.5t-16.5 30.5q0 14 11.5 23.5t31.5 9.5
q6 0 14 -1q38 -6 81 -6q34 0 53 9.5t32.5 37.5t28.5 87l100 398h-117z" />
    <glyph glyph-name="g" unicode="g" horiz-adv-x="400" 
d="M414 414l39 9q-53 -176 -76.5 -275t-23.5 -160q0 -137 -67.5 -192t-157.5 -55q-61 0 -101 30.5t-40 71.5q0 44 28 72t96 64q35 19 68 40q-35 -19 -57 -19q-18 0 -31.5 17t-13.5 45q0 74 34.5 143.5t83 117t89.5 62t125 14.5zM359 342q-22 4 -42 4q-58 0 -92.5 -36.5
t-55.5 -102.5t-21 -105q0 -23 12.5 -38t32.5 -15q24 0 51.5 22t42.5 44.5t36 96.5zM293 76q-53 -45 -129 -96q-78 -52 -99.5 -77.5t-21.5 -57.5q0 -28 24.5 -50t59.5 -22q46 0 86.5 30.5t56.5 75.5t18 131q0 22 5 66z" />
    <glyph glyph-name="h" unicode="h" 
d="M477 104l13 -19q-39 -43 -79.5 -71t-64.5 -28q-39 0 -39 52q0 22 5 49.5t31 115.5q34 117 34 129q0 15 -18 15q-29 0 -85 -46.5t-75 -130.5l-39 -170h-73q30 115 36 140l72 314q27 127 96 181t141 54q20 0 32.5 -10t12.5 -26q0 -33 -50 -33q-11 0 -25 2q-40 6 -55 6
q-33 0 -45.5 -26.5t-23.5 -76.5l-55 -241q56 56 110 91.5t82 35.5q40 0 40 -47q0 -27 -34 -133q-25 -84 -34 -119t-9 -53q0 -19 11 -19q12 0 44 27z" />
    <glyph glyph-name="i" unicode="i" horiz-adv-x="240" 
d="M245 570q0 22 15 36.5t35 14.5q13 0 23 -11.5t10 -26.5q0 -20 -15 -36t-34 -16q-16 0 -25 11t-9 28zM101 297l-22 17q89 97 158 97q18 0 25 -5.5t7 -17.5q0 -18 -32 -120q-52 -177 -52 -209q0 -16 10 -16q20 0 82 60l18 -19q-64 -61 -96 -79.5t-54 -18.5q-18 0 -26.5 13
t-8.5 28q0 55 74 298q4 12 4 19q0 11 -12 11q-17 0 -75 -58z" />
    <glyph glyph-name="j" unicode="j" horiz-adv-x="220" 
d="M260 568q0 24 15.5 38.5t31.5 14.5q15 0 25 -11t10 -27q0 -20 -15 -36t-33 -16q-15 0 -24.5 10t-9.5 27zM113 294l-19 21q40 41 92 68.5t77 27.5q20 0 20 -19q0 -14 -16 -72l-84 -308q-41 -153 -92.5 -210.5t-121.5 -57.5q-33 0 -52 12.5t-19 30.5q0 10 8 19t20 9
q14 0 41 -13q28 -14 47 -14q22 0 38.5 22t50.5 160t55 213l35 123q8 29 8 38t-8 9q-19 0 -80 -59z" />
    <glyph glyph-name="k" unicode="k" 
d="M161 0h-73l64 266q40 169 56.5 230.5t50 103.5t81.5 64.5t89 22.5q23 0 35.5 -10t12.5 -27q0 -31 -51 -31q-22 0 -53 7q-12 3 -22 3q-22 0 -37 -15.5t-25.5 -52.5t-23.5 -96l-34 -156q92 102 164 102q30 0 46.5 -17.5t16.5 -45.5q0 -49 -51.5 -91.5t-167.5 -46.5
q51 -19 84.5 -62t75.5 -146q35 -85 69 -123.5t81 -38.5q24 0 39.5 10t15.5 25q0 8 -4 16q-6 10 -6 20q0 13 9 21.5t20 8.5q14 0 24 -11.5t10 -31.5q0 -32 -32 -59.5t-85 -27.5q-62 0 -114 40.5t-112 181.5q-37 87 -56 119t-50 58zM212 231q100 0 141 27.5t41 68.5
q0 20 -11 30.5t-23 10.5q-44 0 -141 -103z" />
    <glyph glyph-name="l" unicode="l" horiz-adv-x="240" 
d="M288 118l17 -18q-44 -47 -93.5 -80.5t-82.5 -33.5q-17 0 -26 14t-9 29q0 20 6 52.5t25 109.5l52 215q25 101 42.5 142t49.5 73.5t73.5 49.5t85.5 17q21 0 33 -9.5t12 -24.5q0 -36 -47 -36q-17 0 -40 5q-26 5 -41 5q-38 0 -51 -35t-45 -172l-48 -205q-37 -157 -37 -160
q0 -16 12 -16q14 0 47.5 23.5t64.5 54.5z" />
    <glyph glyph-name="m" unicode="m" horiz-adv-x="620" 
d="M98 297l-14 20q45 45 88.5 69.5t71.5 24.5q20 0 20 -16q0 -12 -8 -38q-7 -22 -15 -65q117 119 179 119q32 0 32 -37q0 -25 -14 -69q56 58 97 82t65 24q17 0 29.5 -11.5t12.5 -31.5q0 -27 -23 -103q-56 -183 -56 -208q0 -17 15 -17q17 0 75 57l16 -18q-74 -68 -97 -81
t-41 -13q-19 0 -29.5 17t-10.5 37q0 35 48 195q25 86 25 100q0 17 -14 17q-11 0 -36.5 -15t-47.5 -36.5t-34.5 -48.5t-35 -113.5t-33.5 -137.5h-69l73 297q7 27 7 39q0 15 -15 15t-60 -35.5t-61.5 -73t-25.5 -78.5l-37 -164h-70l55 232q24 100 24 112q0 9 -9 9
q-19 0 -77 -56z" />
    <glyph glyph-name="n" unicode="n" horiz-adv-x="460" 
d="M100 295l-17 18q51 48 90.5 73t72.5 25q21 0 21 -15q0 -5 -2 -15l-21 -98q51 54 106 91t85 37q40 0 40 -49q0 -15 -4.5 -35t-40.5 -136q-31 -97 -31 -132q0 -19 11 -19q13 0 41 24l46 40l12 -18q-43 -47 -81.5 -73.5t-62.5 -26.5q-39 0 -39 57q0 40 54 216q16 54 16 70
q0 17 -17 17q-23 0 -61 -27.5t-62 -59t-37 -89.5l-39 -170h-73q19 65 36 140l43 185q3 11 3 18q0 11 -8 11q-11 0 -34 -16t-47 -43z" />
    <glyph glyph-name="o" unicode="o" horiz-adv-x="400" 
d="M85 113q0 114 70 206t172 92q50 0 80.5 -39t30.5 -105q0 -110 -76.5 -195.5t-160.5 -85.5q-52 0 -84 34t-32 93zM355 243q0 63 -18.5 97t-50.5 34q-45 0 -82 -61.5t-37 -161.5q0 -60 19.5 -93.5t50.5 -33.5q48 0 83 64.5t35 154.5z" />
    <glyph glyph-name="p" unicode="p" 
d="M92 290l-19 19q41 49 86 76.5t79 27.5q26 0 26 -27t-23 -96q88 89 126 105.5t60 16.5q27 0 43 -25t16 -70q0 -117 -73.5 -224t-163.5 -107q-32 0 -70 19l-41 -161q-4 -13 -4 -23q0 -21 18.5 -30t83.5 -17l-6 -24q-80 6 -126 6q-47 0 -118 -6l6 24q36 4 53.5 21.5
t27.5 58.5l89 371q24 99 24 115q0 13 -13 13q-19 0 -81 -63zM191 59q38 -38 79 -38q59 0 103 91.5t44 177.5q0 26 -12.5 41.5t-33.5 15.5q-25 0 -63.5 -31t-57 -60.5t-33.5 -90.5z" />
    <glyph glyph-name="q" unicode="q" horiz-adv-x="400" 
d="M436 429h33q-15 -46 -38.5 -135t-29.5 -113l-84 -353q-3 -11 -3 -18q0 -18 17.5 -25.5t49.5 -11.5l-8 -26q-51 9 -102 9q-52 0 -134 -9l6 26q46 3 66.5 14t31.5 34t24 78l48 202q-45 -53 -94.5 -84t-83.5 -31q-27 0 -43 24.5t-16 69.5q0 105 88 218t205 113q25 0 50 -5z
M373 347q-36 10 -63 10q-81 0 -122 -86.5t-41 -161.5q0 -27 12.5 -43.5t32.5 -16.5q9 0 22 6t42 29t44.5 43.5t23.5 41t20 67.5z" />
    <glyph glyph-name="r" unicode="r" horiz-adv-x="300" 
d="M175 0h-73l35 131q47 191 47 211q0 11 -10 11q-20 0 -77 -59l-16 17q41 44 89.5 72.5t73.5 28.5q21 0 21 -16q0 -9 -6 -33l-21 -87q34 54 84 106.5t77 52.5q14 0 24 -9t10 -23t-9.5 -22.5t-46.5 -21.5q-39 -13 -61 -30t-49.5 -53.5t-38.5 -66t-31 -114.5z" />
    <glyph glyph-name="s" unicode="s" horiz-adv-x="320" 
d="M163 291q0 49 39 84.5t97 35.5q41 0 66 -16t25 -39q0 -13 -10 -23t-23 -10q-20 0 -37 25q-21 31 -47 31q-20 0 -35.5 -15.5t-15.5 -41.5q0 -21 14 -42t45 -54q55 -58 55 -109q0 -52 -45 -91.5t-113 -39.5q-56 0 -85.5 24.5t-29.5 58.5q0 17 11 28.5t27 11.5
q14 0 23.5 -9.5t9.5 -23.5q0 -5 -1 -10t-1 -10q0 -16 13.5 -27.5t40.5 -11.5q41 0 63 22t22 53q0 15 -11 32.5t-46 58.5q-51 56 -51 108z" />
    <glyph glyph-name="t" unicode="t" horiz-adv-x="320" 
d="M222 486l77 30l-35 -137h101l-8 -35h-101l-42 -163q-21 -80 -21 -105q0 -23 20 -23q18 0 53 21t73 52l18 -23q-101 -77 -139 -97t-62 -20q-39 0 -39 56q0 34 19 108l50 194h-79l9 35h78z" />
    <glyph glyph-name="u" unicode="u" horiz-adv-x="460" 
d="M415 398h69l-46 -169q-40 -152 -40 -169q0 -19 16 -19q8 0 19.5 8t59.5 56l16 -18q-98 -101 -145 -101q-16 0 -26.5 12t-10.5 33q0 27 10 68q-32 -40 -88 -76.5t-93 -36.5q-36 0 -36 47q0 24 6 51t30 114q33 117 33 141q0 14 -10 14q-20 0 -75 -53l-22 17q105 94 153 94
q29 0 29 -34t-36 -165q-31 -124 -31 -136q0 -10 6.5 -17.5t14.5 -7.5q30 0 79.5 46.5t64.5 101.5z" />
    <glyph glyph-name="v" unicode="v" 
d="M310 364q-35 -57 -50.5 -101t-15.5 -93q0 -52 18 -134q109 82 153 153.5t44 121.5q0 24 -10 40q-12 19 -12 36q0 15 9.5 23.5t19.5 8.5q36 0 36 -66q0 -109 -89.5 -218t-213.5 -167q-5 34 -14 74q-20 103 -20 140q0 110 97 187q-61 -1 -105 -13.5t-44 -35.5q0 -10 9 -29
q2 -5 2 -10q0 -9 -6.5 -16t-16.5 -7q-13 0 -21.5 10.5t-8.5 28.5q0 50 52 76.5t157 24.5q32 14 40 14q7 0 13.5 -7t6.5 -14q0 -14 -30 -27z" />
    <glyph glyph-name="w" unicode="w" horiz-adv-x="680" 
d="M286 397q22 15 35 15q9 0 15 -6.5t6 -13.5q0 -19 -29 -27l-38 -74q-28 -53 -28 -120q0 -57 20 -134q73 49 140 133q-3 124 22.5 183t54.5 59q16 0 26 -14.5t10 -37.5q0 -21 -11 -57.5t-29 -70.5q0 -125 19 -195q95 66 145.5 141t50.5 131q0 16 -10 39q-12 26 -12 42
t12 23t21 7q33 0 33 -71q0 -100 -87 -210.5t-214 -170.5q-14 49 -28 158q-119 -125 -209 -158q-1 15 -16 90q-17 85 -17 128q0 49 26 99t73 84q-75 -2 -113 -15.5t-38 -34.5q0 -9 5 -21t5 -20q0 -11 -8 -16t-14 -5q-13 0 -21.5 11.5t-8.5 31.5q0 50 55.5 75t156.5 22z" />
    <glyph glyph-name="x" unicode="x" horiz-adv-x="420" 
d="M141 313l-14 20q43 37 78 57.5t51 20.5q25 0 37.5 -37t23.5 -96q60 88 107 122t78 34q15 0 25 -9t10 -24q0 -19 -16.5 -26t-49.5 -8q-71 0 -146 -128l31 -146q28 -137 65.5 -183t69.5 -46q31 0 46 39q10 25 29 25q9 0 17.5 -7.5t8.5 -20.5q0 -23 -26 -43.5t-69 -20.5
q-75 0 -131 66.5t-92 264.5q-82 -121 -120 -151.5t-70 -30.5q-21 0 -36 13.5t-15 29.5q0 11 9.5 22t19.5 11q15 0 28 -17q12 -15 22 -15q16 0 43.5 29.5t48.5 59.5l61 89l-20 91q-13 59 -33 59q-18 0 -71 -44z" />
    <glyph glyph-name="y" unicode="y" horiz-adv-x="400" 
d="M84 310l-16 24l36 24q78 52 97 52q7 0 12.5 -4.5t26.5 -36.5t40.5 -82t30.5 -105t11 -107q0 -18 -1 -35q82 153 82 241q0 21 -8 49q-8 29 -8 47q0 34 31 34q17 0 27.5 -13t10.5 -37q0 -73 -36.5 -179.5t-107.5 -221t-140.5 -166t-136.5 -51.5q-33 0 -49 12.5t-16 28.5
t13 25.5t37 9.5q19 0 43 -6q25 -6 43 -6q49 0 104.5 64t55.5 149q0 51 -17.5 139t-44 136t-54.5 48q-21 0 -66 -33z" />
    <glyph glyph-name="z" unicode="z" 
d="M404 359q-48 -12 -90 -12q-19 0 -37 2q-31 4 -47 4q-30 0 -30 -24q0 -16 17 -19q23 -2 23 -20q0 -8 -7 -14.5t-16 -6.5q-18 0 -32.5 16.5t-14.5 40.5q0 37 30 61.5t72 24.5q14 0 28 -3q28 -6 65 -10t44 -4q26 0 50 18q8 6 17 8q14 0 14 -11q0 -5 -8 -15.5t-73 -72.5
l-151 -145q-78 -75 -110 -102q28 3 45 3q33 0 96 -21q53 -18 85 -18q20 0 31.5 9.5t11.5 20.5q0 10 -8 27q-7 14 -7 25q0 13 9 19.5t21 6.5q13 0 21.5 -12t8.5 -30q0 -42 -39 -80.5t-106 -38.5q-35 0 -106 21q-55 17 -86 17q-18 0 -39 -17q-13 -11 -22 -11q-18 0 -18 9
q0 6 9.5 20t122.5 118t149 140z" />
    <glyph glyph-name="braceleft" unicode="{" horiz-adv-x="240" 
d="M421 673l-4 -17q-70 -5 -96.5 -47t-52.5 -162q-22 -101 -28.5 -124.5t-21.5 -44.5t-47 -30q34 -20 34 -55q0 -25 -29 -131q-33 -121 -33 -162q0 -20 18.5 -37t61.5 -20l-3 -18q-72 1 -102.5 20.5t-30.5 59.5t36 175q25 92 25 119q0 21 -10 31t-37 18q28 3 46 16t29 40
t30 116q28 131 47.5 172.5t56.5 60.5t111 20z" />
    <glyph glyph-name="bar" unicode="|" horiz-adv-x="520" 
d="M326 -244v932h54v-932h-54z" />
    <glyph glyph-name="braceright" unicode="}" horiz-adv-x="240" 
d="M-38 -175l3 16q42 4 69 19.5t46.5 67t34.5 122.5q25 122 42.5 156.5t54.5 42.5q-34 21 -34 55q0 25 28 131q34 128 34 153q0 61 -81 66l4 19q73 -1 103 -21.5t30 -58.5q0 -39 -36 -176q-26 -98 -26 -115q0 -24 12 -35.5t35 -17.5q-32 -3 -49.5 -19.5t-22.5 -28
t-32 -124.5q-26 -110 -39 -152t-49.5 -70.5t-126.5 -29.5z" />
    <glyph glyph-name="asciitilde" unicode="~" horiz-adv-x="520" 
d="M539 358l30 -33q-51 -94 -120 -94q-16 0 -33.5 5t-82.5 32q-54 21 -74 21q-30 0 -51 -21t-40 -56l-31 35q28 49 55.5 74t66.5 25q32 0 106 -31q66 -27 84 -27q48 0 90 70z" />
    <glyph glyph-name="asciitilde" unicode="&#x203e;" horiz-adv-x="520" 
d="M539 358l30 -33q-51 -94 -120 -94q-16 0 -33.5 5t-82.5 32q-54 21 -74 21q-30 0 -51 -21t-40 -56l-31 35q28 49 55.5 74t66.5 25q32 0 106 -31q66 -27 84 -27q48 0 90 70z" />
    <glyph glyph-name="uniB7" unicode="&#xb7;" horiz-adv-x="1000" 
d="M500 373q30 0 52 -22t22 -52t-22 -52t-52 -22t-52 22t-22 52t22 52t52 22z" />
    <glyph glyph-name="emdash" unicode="&#x2014;" horiz-adv-x="1000" 
d="M1000 265h-1000v58h1000v-58z" />
    <glyph glyph-name="ellipsis" unicode="&#x2026;" horiz-adv-x="1000" 
d="M165 351q26 0 45 -19t19 -45t-19 -45t-45 -19t-45 19t-19 45t19 45t45 19zM497 351q26 0 45 -19t19 -45t-19 -45t-45 -19t-45 19t-19 45t19 45t45 19zM830 351q26 0 45 -19t19 -45t-19 -45t-45 -19t-45 19t-19 45t19 45t45 19z" />
    <glyph glyph-name="quotedblleft" unicode="&#x201c;" horiz-adv-x="1000" 
d="M810 735q0 -3 -8 -10q-41 -34 -60 -71t-19 -61t3.5 -36t3.5 -17q0 -16 -19.5 -26.5t-36 -10.5t-40 14.5t-23.5 42.5q0 16 9 32.5t35.5 49t57 54.5t58.5 31.5t33.5 9.5t5.5 -2zM920 734q0 -3 -6 -11q-19 -24 -28.5 -54.5t-9.5 -51.5t14 -56q4 -9 4 -19.5t-20.5 -21
t-38.5 -10.5t-37 11t-19 41.5t21.5 73.5t65 71.5t52.5 28.5q2 0 2 -2z" />
    <glyph glyph-name="uni300A" unicode="&#x300a;" horiz-adv-x="1000" 
d="M936 27l-44 -34l-221 302l221 302l44 -34l-196 -268zM759 27l-44 -34l-221 302l221 302l44 -34l-196 -268z" />
    <glyph glyph-name="uni300B" unicode="&#x300b;" horiz-adv-x="1000" 
d="M506 291l-221 -302l-44 34l196 268l-196 268l44 34zM329 291l-221 -302l-44 34l196 268l-196 268l44 34z" />
    <glyph glyph-name="uniFF01" unicode="&#xff01;" horiz-adv-x="1000" 
d="M255 556q24 0 41 -8t23.5 -20t6.5 -62.5t-13 -128t-42.5 -130.5t-37.5 -53q-3 0 -3 7t3 25.5t3 54.5q0 108 -26 179q-15 40 -15 75.5t16.5 48t43.5 12.5zM318 34q0 -8 -23.5 -28t-50 -20t-44.5 19.5t-18 42t15 40.5t32 18q35 0 50.5 -29t33.5 -38q5 -2 5 -5z" />
    <glyph glyph-name="uniFFE5" unicode="&#xffe5;" horiz-adv-x="1000" 
d="M835 569q-57 -20 -116 -123l-44 12q1 30 18 59q-37 -21 -67.5 -79.5t-60.5 -106.5l151 17l-25 -59l-158 -11q-18 -34 -23 -47l186 7l-31 -62l-177 5l-6 -16q-4 -59 -14.5 -105.5t-17.5 -56.5t-18 -10q-23 0 -65 33t-42 78q0 15 5 28t9 16.5t15 5t21 27.5l-145 -7l10 42
l147 10q5 20 6 42l-136 -10l6 45l133 9q0 44 -9 124.5t-23 137.5l136 54q8 -69 8 -135t-7 -126q74 127 114 178.5t60 70t39.5 18.5t46 -15t74.5 -50z" />
    <glyph glyph-name="uniFF08" unicode="&#xff08;" horiz-adv-x="1000" 
d="M934 602q-142 -76 -211 -176.5t-69 -227.5t62 -265l-75 21q-77 140 -77 319q0 86 33.5 172.5t102 147t99.5 60.5q23 0 135 -51z" />
    <glyph glyph-name="uniFF09" unicode="&#xff09;" horiz-adv-x="1000" 
d="M359 642q77 -142 77 -320q0 -85 -31 -166.5t-98.5 -147.5t-107.5 -66q-27 0 -133 51q144 76 212 175t68 227.5t-62 266.5z" />
    <glyph glyph-name="uniFF1A" unicode="&#xff1a;" horiz-adv-x="1000" 
d="M247 311q18 0 37 -21t42 -29q10 -3 10 -10t-12.5 -21t-37.5 -23t-46.5 -9t-36 14.5t-14.5 37.5t18 42t40 19zM247 75q18 0 37 -21t42 -29q10 -3 10 -10t-12.5 -21t-37.5 -23t-46.5 -9t-36 14.5t-14.5 37.5t18 42t40 19z" />
    <glyph glyph-name="uniFF1F" unicode="&#xff1f;" horiz-adv-x="1000" 
d="M274 529q68 0 111.5 -40t43.5 -90q0 -32 -20 -74.5t-46 -67.5q-82 -78 -96.5 -100t-16.5 -22t-2 1q0 8 25.5 67.5t47.5 107t22 82.5q0 18 -8 35t-34.5 17t-36 -9t-14.5 -33q-8 -43 -53 -43q-80 0 -80 45q0 51 46.5 87.5t110.5 36.5zM247 79q18 0 37 -21t42 -29
q10 -3 10 -10t-12.5 -21t-37.5 -23t-46.5 -9t-36 14.5t-14.5 37.5t18 42t40 19z" />
  </font>
</defs>
</svg>
